<mxfile host="Electron" modified="2025-06-20T02:28:43.236Z" agent="Mozilla/5.0 (Windows NT 10.0; Win64; x64) AppleWebKit/537.36 (KHTML, like Gecko) draw.io/24.0.4 Chrome/120.0.6099.109 Electron/28.1.0 Safari/537.36" etag="bdTAFk8R0jgbwoK6TBci" version="24.0.4" type="device">
  <diagram name="Página-1" id="J6N26KwJk4hwAfrmrQXD">
    <mxGraphModel dx="880" dy="572" grid="1" gridSize="10" guides="1" tooltips="1" connect="1" arrows="1" fold="1" page="1" pageScale="1" pageWidth="1169" pageHeight="827" math="0" shadow="0">
      <root>
        <mxCell id="0" />
        <mxCell id="1" parent="0" />
        <mxCell id="NvYxFkgoJ4vXPSEdkqr7-1" value="" style="rounded=0;whiteSpace=wrap;html=1;" parent="1" vertex="1">
          <mxGeometry x="100" y="80" width="740" height="440" as="geometry" />
        </mxCell>
        <mxCell id="NvYxFkgoJ4vXPSEdkqr7-2" value="&lt;font style=&quot;font-size: 22px;&quot;&gt;Web Personalizada de Eventos&lt;/font&gt;" style="text;html=1;align=center;verticalAlign=middle;whiteSpace=wrap;rounded=0;" parent="1" vertex="1">
          <mxGeometry x="100" y="80" width="390" height="110" as="geometry" />
        </mxCell>
        <mxCell id="NvYxFkgoJ4vXPSEdkqr7-3" value="Opciones" style="swimlane;fontStyle=0;childLayout=stackLayout;horizontal=1;startSize=30;horizontalStack=0;resizeParent=1;resizeParentMax=0;resizeLast=0;collapsible=1;marginBottom=0;whiteSpace=wrap;html=1;" parent="1" vertex="1">
          <mxGeometry x="700" y="80" width="140" height="150" as="geometry" />
        </mxCell>
        <mxCell id="NvYxFkgoJ4vXPSEdkqr7-4" value="Nuevo Evento" style="text;strokeColor=none;fillColor=none;align=left;verticalAlign=middle;spacingLeft=4;spacingRight=4;overflow=hidden;points=[[0,0.5],[1,0.5]];portConstraint=eastwest;rotatable=0;whiteSpace=wrap;html=1;" parent="NvYxFkgoJ4vXPSEdkqr7-3" vertex="1">
          <mxGeometry y="30" width="140" height="30" as="geometry" />
        </mxCell>
        <mxCell id="NvYxFkgoJ4vXPSEdkqr7-5" value="Eventos Existentes" style="text;strokeColor=none;fillColor=none;align=left;verticalAlign=middle;spacingLeft=4;spacingRight=4;overflow=hidden;points=[[0,0.5],[1,0.5]];portConstraint=eastwest;rotatable=0;whiteSpace=wrap;html=1;" parent="NvYxFkgoJ4vXPSEdkqr7-3" vertex="1">
          <mxGeometry y="60" width="140" height="30" as="geometry" />
        </mxCell>
        <mxCell id="NvYxFkgoJ4vXPSEdkqr7-6" value="Ver Reloj" style="text;strokeColor=none;fillColor=none;align=left;verticalAlign=middle;spacingLeft=4;spacingRight=4;overflow=hidden;points=[[0,0.5],[1,0.5]];portConstraint=eastwest;rotatable=0;whiteSpace=wrap;html=1;" parent="NvYxFkgoJ4vXPSEdkqr7-3" vertex="1">
          <mxGeometry y="90" width="140" height="30" as="geometry" />
        </mxCell>
        <mxCell id="NvYxFkgoJ4vXPSEdkqr7-9" value="Cancelar Eventos" style="text;strokeColor=none;fillColor=none;align=left;verticalAlign=middle;spacingLeft=4;spacingRight=4;overflow=hidden;points=[[0,0.5],[1,0.5]];portConstraint=eastwest;rotatable=0;whiteSpace=wrap;html=1;" parent="NvYxFkgoJ4vXPSEdkqr7-3" vertex="1">
          <mxGeometry y="120" width="140" height="30" as="geometry" />
        </mxCell>
        <mxCell id="NvYxFkgoJ4vXPSEdkqr7-14" value="" style="rounded=0;whiteSpace=wrap;html=1;" parent="1" vertex="1">
          <mxGeometry x="610" y="580" width="250" height="380" as="geometry" />
        </mxCell>
        <mxCell id="NvYxFkgoJ4vXPSEdkqr7-13" value="Nuevo Evento" style="text;html=1;align=center;verticalAlign=middle;whiteSpace=wrap;rounded=0;" parent="1" vertex="1">
          <mxGeometry x="670" y="580" width="110" height="30" as="geometry" />
        </mxCell>
        <mxCell id="NvYxFkgoJ4vXPSEdkqr7-15" value="Tipo de evento:" style="text;html=1;align=center;verticalAlign=middle;whiteSpace=wrap;rounded=0;" parent="1" vertex="1">
          <mxGeometry x="610" y="620" width="140" height="30" as="geometry" />
        </mxCell>
        <mxCell id="NvYxFkgoJ4vXPSEdkqr7-16" value="&lt;ul&gt;&lt;li&gt;(Lista desplegable)&lt;/li&gt;&lt;/ul&gt;" style="rounded=1;whiteSpace=wrap;html=1;align=left;" parent="1" vertex="1">
          <mxGeometry x="640" y="650" width="170" height="20" as="geometry" />
        </mxCell>
        <mxCell id="NvYxFkgoJ4vXPSEdkqr7-17" value="Fecha de Realización:" style="text;html=1;align=center;verticalAlign=middle;whiteSpace=wrap;rounded=0;" parent="1" vertex="1">
          <mxGeometry x="630" y="680" width="140" height="30" as="geometry" />
        </mxCell>
        <mxCell id="NvYxFkgoJ4vXPSEdkqr7-18" value="&lt;ul&gt;&lt;li&gt;(Lista desplegable)&lt;/li&gt;&lt;/ul&gt;" style="rounded=1;whiteSpace=wrap;html=1;align=left;" parent="1" vertex="1">
          <mxGeometry x="640" y="710" width="170" height="20" as="geometry" />
        </mxCell>
        <mxCell id="NvYxFkgoJ4vXPSEdkqr7-19" value="Hora de Realización:" style="text;html=1;align=center;verticalAlign=middle;whiteSpace=wrap;rounded=0;" parent="1" vertex="1">
          <mxGeometry x="630" y="740" width="140" height="30" as="geometry" />
        </mxCell>
        <mxCell id="NvYxFkgoJ4vXPSEdkqr7-20" value="&lt;ul&gt;&lt;li&gt;00:00&lt;/li&gt;&lt;/ul&gt;" style="rounded=1;whiteSpace=wrap;html=1;align=left;" parent="1" vertex="1">
          <mxGeometry x="640" y="770" width="170" height="20" as="geometry" />
        </mxCell>
        <mxCell id="NvYxFkgoJ4vXPSEdkqr7-21" value="" style="endArrow=none;html=1;rounded=0;exitX=-0.011;exitY=0.087;exitDx=0;exitDy=0;exitPerimeter=0;" parent="1" source="NvYxFkgoJ4vXPSEdkqr7-14" edge="1">
          <mxGeometry width="50" height="50" relative="1" as="geometry">
            <mxPoint x="530" y="720" as="sourcePoint" />
            <mxPoint x="860" y="613" as="targetPoint" />
          </mxGeometry>
        </mxCell>
        <mxCell id="NvYxFkgoJ4vXPSEdkqr7-22" style="edgeStyle=orthogonalEdgeStyle;rounded=0;orthogonalLoop=1;jettySize=auto;html=1;exitX=1;exitY=0.5;exitDx=0;exitDy=0;entryX=1;entryY=0.25;entryDx=0;entryDy=0;" parent="1" source="NvYxFkgoJ4vXPSEdkqr7-4" target="NvYxFkgoJ4vXPSEdkqr7-14" edge="1">
          <mxGeometry relative="1" as="geometry">
            <Array as="points">
              <mxPoint x="970" y="125" />
              <mxPoint x="970" y="670" />
              <mxPoint x="860" y="670" />
            </Array>
          </mxGeometry>
        </mxCell>
        <mxCell id="NvYxFkgoJ4vXPSEdkqr7-23" value="Cantidad de personas:" style="text;html=1;align=center;verticalAlign=middle;whiteSpace=wrap;rounded=0;" parent="1" vertex="1">
          <mxGeometry x="635" y="800" width="140" height="30" as="geometry" />
        </mxCell>
        <mxCell id="NvYxFkgoJ4vXPSEdkqr7-24" value="&lt;ul&gt;&lt;li&gt;1 - 100&lt;/li&gt;&lt;/ul&gt;" style="rounded=1;whiteSpace=wrap;html=1;align=left;" parent="1" vertex="1">
          <mxGeometry x="645" y="830" width="170" height="20" as="geometry" />
        </mxCell>
        <mxCell id="NvYxFkgoJ4vXPSEdkqr7-25" value="Servicios Requeridos:" style="text;html=1;align=center;verticalAlign=middle;whiteSpace=wrap;rounded=0;" parent="1" vertex="1">
          <mxGeometry x="635" y="860" width="140" height="30" as="geometry" />
        </mxCell>
        <mxCell id="NvYxFkgoJ4vXPSEdkqr7-26" value="&lt;ul&gt;&lt;li&gt;(lista desplegable)&lt;/li&gt;&lt;/ul&gt;" style="rounded=1;whiteSpace=wrap;html=1;align=left;" parent="1" vertex="1">
          <mxGeometry x="645" y="890" width="170" height="20" as="geometry" />
        </mxCell>
        <mxCell id="NvYxFkgoJ4vXPSEdkqr7-28" value="Eventos reservados" style="swimlane;fontStyle=0;childLayout=stackLayout;horizontal=1;startSize=30;horizontalStack=0;resizeParent=1;resizeParentMax=0;resizeLast=0;collapsible=1;marginBottom=0;whiteSpace=wrap;html=1;" parent="1" vertex="1">
          <mxGeometry x="300" y="615" width="230" height="310" as="geometry" />
        </mxCell>
        <mxCell id="NvYxFkgoJ4vXPSEdkqr7-29" value="Evento 1&lt;br&gt;Fecha Reserva:&amp;nbsp;&amp;nbsp;&lt;br&gt;Fecha Realización" style="text;strokeColor=none;fillColor=none;align=left;verticalAlign=middle;spacingLeft=4;spacingRight=4;overflow=hidden;points=[[0,0.5],[1,0.5]];portConstraint=eastwest;rotatable=0;whiteSpace=wrap;html=1;" parent="NvYxFkgoJ4vXPSEdkqr7-28" vertex="1">
          <mxGeometry y="30" width="230" height="80" as="geometry" />
        </mxCell>
        <mxCell id="NvYxFkgoJ4vXPSEdkqr7-30" value="Evento 2&lt;br&gt;Fecha Reserva:&amp;nbsp;&amp;nbsp;&lt;br&gt;Fecha Realización" style="text;strokeColor=none;fillColor=none;align=left;verticalAlign=middle;spacingLeft=4;spacingRight=4;overflow=hidden;points=[[0,0.5],[1,0.5]];portConstraint=eastwest;rotatable=0;whiteSpace=wrap;html=1;" parent="NvYxFkgoJ4vXPSEdkqr7-28" vertex="1">
          <mxGeometry y="110" width="230" height="100" as="geometry" />
        </mxCell>
        <mxCell id="NvYxFkgoJ4vXPSEdkqr7-31" value="Evento 3&lt;br&gt;Fecha Reserva:&amp;nbsp;&amp;nbsp;&lt;br&gt;Fecha Realización" style="text;strokeColor=none;fillColor=none;align=left;verticalAlign=middle;spacingLeft=4;spacingRight=4;overflow=hidden;points=[[0,0.5],[1,0.5]];portConstraint=eastwest;rotatable=0;whiteSpace=wrap;html=1;" parent="NvYxFkgoJ4vXPSEdkqr7-28" vertex="1">
          <mxGeometry y="210" width="230" height="100" as="geometry" />
        </mxCell>
        <mxCell id="NvYxFkgoJ4vXPSEdkqr7-33" style="edgeStyle=orthogonalEdgeStyle;rounded=0;orthogonalLoop=1;jettySize=auto;html=1;exitX=0;exitY=0.5;exitDx=0;exitDy=0;entryX=0.5;entryY=0;entryDx=0;entryDy=0;" parent="1" source="NvYxFkgoJ4vXPSEdkqr7-5" target="NvYxFkgoJ4vXPSEdkqr7-28" edge="1">
          <mxGeometry relative="1" as="geometry">
            <Array as="points">
              <mxPoint x="530" y="155" />
              <mxPoint x="530" y="580" />
              <mxPoint x="415" y="580" />
            </Array>
          </mxGeometry>
        </mxCell>
        <mxCell id="NvYxFkgoJ4vXPSEdkqr7-34" value="&lt;div&gt;&lt;font style=&quot;font-size: 17px;&quot;&gt;Hora Local Argentina:&amp;nbsp;&lt;/font&gt;&lt;/div&gt;&lt;font style=&quot;font-size: 17px;&quot;&gt;00:00:00&lt;/font&gt;" style="rounded=1;whiteSpace=wrap;html=1;" parent="1" vertex="1">
          <mxGeometry x="960" y="710" width="200" height="60" as="geometry" />
        </mxCell>
        <mxCell id="NvYxFkgoJ4vXPSEdkqr7-35" style="edgeStyle=orthogonalEdgeStyle;rounded=0;orthogonalLoop=1;jettySize=auto;html=1;exitX=1;exitY=0.5;exitDx=0;exitDy=0;entryX=0.75;entryY=0;entryDx=0;entryDy=0;" parent="1" source="NvYxFkgoJ4vXPSEdkqr7-6" target="NvYxFkgoJ4vXPSEdkqr7-34" edge="1">
          <mxGeometry relative="1" as="geometry" />
        </mxCell>
        <mxCell id="NvYxFkgoJ4vXPSEdkqr7-38" value="&lt;h1 style=&quot;margin-top: 0px;&quot;&gt;&lt;font style=&quot;font-size: 17px;&quot;&gt;Descripción&lt;/font&gt;&lt;/h1&gt;&lt;p&gt;Lorem ipsum dolor sit amet, consectetur adipisicing elit, sed do eiusmod tempor incididunt ut labore et dolore magna aliqua.&lt;/p&gt;" style="text;html=1;whiteSpace=wrap;overflow=hidden;rounded=0;" parent="1" vertex="1">
          <mxGeometry x="110" y="190" width="350" height="120" as="geometry" />
        </mxCell>
        <mxCell id="NvYxFkgoJ4vXPSEdkqr7-39" value="" style="ellipse;shape=cloud;whiteSpace=wrap;html=1;" parent="1" vertex="1">
          <mxGeometry x="100" y="310" width="230" height="160" as="geometry" />
        </mxCell>
        <mxCell id="NvYxFkgoJ4vXPSEdkqr7-40" value="Cancelar Evento" style="swimlane;fontStyle=0;childLayout=stackLayout;horizontal=1;startSize=30;horizontalStack=0;resizeParent=1;resizeParentMax=0;resizeLast=0;collapsible=1;marginBottom=0;whiteSpace=wrap;html=1;" parent="1" vertex="1">
          <mxGeometry y="615" width="230" height="310" as="geometry" />
        </mxCell>
        <mxCell id="NvYxFkgoJ4vXPSEdkqr7-41" value="Evento 1&lt;br&gt;Fecha Reserva:&amp;nbsp;&amp;nbsp;&lt;br&gt;Fecha Realización" style="text;strokeColor=none;fillColor=none;align=left;verticalAlign=middle;spacingLeft=4;spacingRight=4;overflow=hidden;points=[[0,0.5],[1,0.5]];portConstraint=eastwest;rotatable=0;whiteSpace=wrap;html=1;" parent="NvYxFkgoJ4vXPSEdkqr7-40" vertex="1">
          <mxGeometry y="30" width="230" height="80" as="geometry" />
        </mxCell>
        <mxCell id="NvYxFkgoJ4vXPSEdkqr7-42" value="Evento 2&lt;br&gt;Fecha Reserva:&amp;nbsp;&amp;nbsp;&lt;br&gt;Fecha Realización" style="text;strokeColor=none;fillColor=none;align=left;verticalAlign=middle;spacingLeft=4;spacingRight=4;overflow=hidden;points=[[0,0.5],[1,0.5]];portConstraint=eastwest;rotatable=0;whiteSpace=wrap;html=1;" parent="NvYxFkgoJ4vXPSEdkqr7-40" vertex="1">
          <mxGeometry y="110" width="230" height="100" as="geometry" />
        </mxCell>
        <mxCell id="NvYxFkgoJ4vXPSEdkqr7-43" value="Evento 3&lt;br&gt;Fecha Reserva:&amp;nbsp;&amp;nbsp;&lt;br&gt;Fecha Realización" style="text;strokeColor=none;fillColor=none;align=left;verticalAlign=middle;spacingLeft=4;spacingRight=4;overflow=hidden;points=[[0,0.5],[1,0.5]];portConstraint=eastwest;rotatable=0;whiteSpace=wrap;html=1;" parent="NvYxFkgoJ4vXPSEdkqr7-40" vertex="1">
          <mxGeometry y="210" width="230" height="100" as="geometry" />
        </mxCell>
        <mxCell id="NvYxFkgoJ4vXPSEdkqr7-44" style="edgeStyle=orthogonalEdgeStyle;rounded=0;orthogonalLoop=1;jettySize=auto;html=1;exitX=0;exitY=0.5;exitDx=0;exitDy=0;entryX=0.25;entryY=0;entryDx=0;entryDy=0;" parent="1" source="NvYxFkgoJ4vXPSEdkqr7-9" target="NvYxFkgoJ4vXPSEdkqr7-40" edge="1">
          <mxGeometry relative="1" as="geometry">
            <Array as="points">
              <mxPoint x="610" y="215" />
              <mxPoint x="610" y="550" />
              <mxPoint x="58" y="550" />
            </Array>
          </mxGeometry>
        </mxCell>
      </root>
    </mxGraphModel>
  </diagram>
</mxfile>
